<svg id="writing" class="fill: none;" data-name="Layer 1" xmlns="http://www.w3.org/2000/svg" viewBox="0 0 1412 112"> <defs>
  <style type="text/css"><![CDATA[
    #writing {
    fill:none;
    stroke: black;
    stroke-dasharray: 2400;
    stroke-dashoffset: 2400;
    stroke-width: 1;
    animation: write 10s linear forwards;
    }

    @keyframes write {
    0% {
    stroke-dashoffset: 2820;
    }
    100% {
    stroke-dashoffset: 0;
    stroke-width: 0.1;
    fill: black;
    }
    }

    ]]></style>
  </defs><title>the fruits stickers collective</title><path d="M1016.63,56c0,5.49.37,11-.09,16.46-.73,8.66-4.83,12.94-13.37,14.74a37,37,0,0,1-16.34-.2c-7.33-1.75-11.95-6.32-12.28-13.84-.49-11.28-.52-22.62,0-33.91.36-7.81,4.8-12.16,12.41-13.92a37.35,37.35,0,0,1,16.59-.08c9,2,13,7.21,13.32,17.26.15,4.49,0,9,0,13.48Zm-12,.1h-.24c0-3.66,0-7.32,0-11a6.68,6.68,0,0,0-.19-1.23c-1-5.06-3.58-7-9.28-6.9-4.83.06-7.67,2.11-7.94,7.08a233.37,233.37,0,0,0-.08,24.16c.26,5.15,3.18,7.25,8.3,7.32,5.45.08,8.09-1.77,8.82-7C1004.59,64.44,1004.47,60.26,1004.66,56.11Z"/><path d="M289.1,68.63,297.36,87c-4.52,0-8.48.06-12.43-.07-.48,0-1.07-.95-1.36-1.57-1.78-3.76-3.48-7.56-5.21-11.34s-1.7-3.69-6.33-3.15c0,4.25,0,8.55,0,12.85C272,87,272,87,268.63,87H260c-.07-1.05-.17-1.86-.17-2.66,0-18.75,0-37.5-.05-56.25,0-2.16.5-2.9,2.77-2.83,5.49.17,11,0,16.5.07a29.15,29.15,0,0,1,5.22.37c6.92,1.32,11.24,5.56,11.93,12.87a129,129,0,0,1,0,18.71A13.24,13.24,0,0,1,289.1,68.63Zm-16.93-31V58.53c2.54-.15,4.93-.21,7.31-.44a4.51,4.51,0,0,0,4.43-4.33,103.51,103.51,0,0,0,.06-11.7,4.09,4.09,0,0,0-3.87-4C277.56,37.77,275,37.77,272.17,37.62Z"/><path d="M807.1,68.65,815.39,87a71.94,71.94,0,0,0-8.3.06c-3.6.44-5.66-.7-6.79-4.29-1-3.07-2.63-5.92-4-8.87-1.71-3.71-1.71-3.71-6.29-3,0,4.5-.09,9.06,0,13.62.06,2-.53,2.63-2.53,2.53-3.06-.16-6.14,0-9.51,0-.08-1-.2-1.88-.2-2.75,0-18.75,0-37.5,0-56.25,0-2,.42-2.79,2.6-2.73,5.58.15,11.16,0,16.75.06a29.28,29.28,0,0,1,5,.33c7,1.26,11.43,5.61,12.1,13a130.83,130.83,0,0,1,0,18.71A13.25,13.25,0,0,1,807.1,68.65Zm-17-10.1c2.63-.16,5-.24,7.27-.45,2.58-.24,4.31-1.8,4.48-4.28a68.4,68.4,0,0,0-.06-11.94,5.25,5.25,0,0,0-3.23-3.54c-2.65-.71-5.54-.55-8.46-.76Z"/><path d="M84.63,49.42h15V32.12c0-6.81,0-6.81,6.74-6.81,5.63,0,5.63,0,5.63,5.6,0,17.74,0,35.47.05,53.21,0,2.28-.56,3.12-2.9,2.92a52.27,52.27,0,0,0-7.24,0c-1.76.1-2.32-.55-2.3-2.28.07-6.83,0-13.66,0-20.48,0-.89,0-1.78,0-2.79H84.52c0,4.79,0,9.44,0,14.08,0,3.08-.09,6.17,0,9.24.07,1.8-.59,2.31-2.3,2.23a77,77,0,0,0-7.74,0c-1.83.1-2.24-.66-2.22-2.32.06-8,0-16,0-24q0-16,0-32c0-3.44,0-3.44,3.56-3.44,2,0,4,.12,6,0s2.75.47,2.7,2.62c-.14,6.33-.05,12.66,0,19C84.53,47.69,84.59,48.5,84.63,49.42Z"/><path d="M355.13,48.95c0,7.66.4,15.35-.11,23-.58,8.76-5,13.36-13.57,15.26a34.73,34.73,0,0,1-16.58-.36A15.43,15.43,0,0,1,313,73a83.26,83.26,0,0,1-.41-9c0-12,0-24-.06-36,0-2.06.56-2.84,2.67-2.71a62.71,62.71,0,0,0,7.49,0c1.9-.11,2.38.6,2.37,2.44-.08,11.91,0,23.83,0,35.74,0,.92,0,1.83,0,2.75.39,9,7,10.27,12.86,8.52,4.05-1.21,5-4.94,5-8.66.13-8.25.05-16.5.06-24.74,0-4.67.05-9.33,0-14,0-1.53.52-2.07,2-2,2.66.07,5.34.11,8,0,1.83-.08,2.47.53,2.45,2.42-.09,7.08,0,14.16,0,21.24Z"/><path d="M1204.77,46.57a8.15,8.15,0,0,1-.27-1.07c-.46-7.33-7.75-11.26-14.1-7.39-1.47.9-2.43,2.82-3.3,4.45a7.71,7.71,0,0,0-.5,3.43c0,6.66-.16,13.33,0,20,.23,8.55,5.85,10.58,12.84,8.73,1.48-.39,2.9-1.93,3.79-3.3a10.06,10.06,0,0,0,1.2-4.52c.43-5.26.37-5.27,5.61-5.27,7,0,7.07,0,6.86,7.17a36.57,36.57,0,0,1-.55,5.46c-1.26,6.89-5.5,11-12.19,12.69a35.62,35.62,0,0,1-17.32,0c-7.09-1.74-11.94-6.64-12.29-14-.52-11-.67-22-.09-32.94.45-8.64,4.89-13.28,13.4-14.67a48.69,48.69,0,0,1,15.34,0c8.69,1.4,13,7.09,13.65,16.56.34,4.67.34,4.67-4.26,4.67Z"/><path d="M947.19,46.57a9.52,9.52,0,0,1-.2-1.31c.07-3.1-.51-5.92-3.74-7.23-3.7-1.5-7.54-1.88-11,.48-1.24.85-2,2.57-2.68,4A8.69,8.69,0,0,0,929.1,46c0,6.66-.16,13.33,0,20,.23,8.55,5.85,10.58,12.84,8.74,1.48-.39,2.9-1.93,3.79-3.3a10.06,10.06,0,0,0,1.2-4.52c.43-5.27.37-5.27,5.6-5.27,7,0,7.07,0,6.86,7.17a36.59,36.59,0,0,1-.55,5.46c-1.26,6.89-5.5,11-12.18,12.69a35.62,35.62,0,0,1-17.32,0c-7.09-1.74-11.95-6.64-12.29-14-.52-11-.67-22-.09-32.94.45-8.64,4.89-13.28,13.4-14.67a48.69,48.69,0,0,1,15.34,0c8.69,1.4,13,7.09,13.66,16.56.35,4.68.35,4.68-4.25,4.68Z"/><path d="M646.21,46.57a8.84,8.84,0,0,1-.21-1.29c.07-3.09-.5-5.91-3.71-7.25-3.61-1.5-7.38-1.83-10.78.32-1.33.84-2.17,2.64-2.9,4.17a8.29,8.29,0,0,0-.5,3.44c0,6.66-.16,13.33,0,20,.22,8.57,5.82,10.59,12.82,8.77,1.48-.38,2.91-1.92,3.8-3.29a10,10,0,0,0,1.21-4.52c.44-5.29.38-5.3,5.83-5.3H652c6.48,0,6.52,0,6.4,6.39a40.68,40.68,0,0,1-.51,6c-1.16,6.89-5.28,11.16-12,12.9a35.2,35.2,0,0,1-17.8,0c-7-1.79-11.74-6.66-12.08-13.88-.52-11-.68-22-.09-32.94.46-8.72,5-13.45,13.61-14.77a48.94,48.94,0,0,1,15.1,0c8.76,1.43,13.09,7.23,13.69,16.79.28,4.45.28,4.45-4.24,4.45Z"/><path d="M691.34,58.78c-3.15,3.4-5.42,6.71-4.93,11.6s.05,9.65.13,14.48c0,1.59-.42,2.25-2.1,2.17A64.55,64.55,0,0,0,677,87c-2.08.14-2.7-.55-2.68-2.64.09-13.24,0-26.48,0-39.72,0-5.66.07-11.33,0-17,0-1.85.53-2.52,2.41-2.42,2.57.14,5.16.11,7.74,0,1.64-.06,2.15.54,2.12,2.17-.09,5.24,0,10.49,0,15.74,0,.47,0,.95.1,2.12,1.1-1.46,1.82-2.42,2.53-3.37,3.72-5,7.38-10.07,11.21-15a4.59,4.59,0,0,1,3-1.56c3.55-.19,7.11-.07,11.29-.07-.7,1.26-1,2-1.53,2.72-4.13,5.74-8.25,11.5-12.46,17.18a3.23,3.23,0,0,0-.43,3.6c4.7,11.64,9.3,23.32,13.92,35,.35.9.63,1.82,1.09,3.17-4.7,0-9,.07-13.28-.09-.52,0-1.18-1.21-1.46-2-2.87-8.07-5.66-16.16-8.48-24.24C691.86,60.13,691.65,59.59,691.34,58.78Z"/><path d="M493.27,66.71c.77,1.45,1.27,2.49,1.85,3.48,2.47,4.18,6.77,6.08,10.74,4.78,4.52-1.48,5.74-6.48,2.19-9.63A26.55,26.55,0,0,0,502.54,62c-3.69-1.91-7.64-3.38-11.12-5.6-6.41-4.1-9.88-10-8.31-17.8,1.47-7.35,6.73-11.22,13.58-13.16,10.65-3,19.33.66,24.25,10,.82,1.57.69,2.48-.86,3.45-2.47,1.54-4.8,3.29-7.36,5.06-1.31-1.48-2.51-3-3.82-4.3a8.58,8.58,0,0,0-9.83-2.23c-1.22.48-2.78,1.8-2.93,2.9a5.1,5.1,0,0,0,1.76,4c1.94,1.5,4.32,2.42,6.53,3.58,3.6,1.89,7.41,3.48,10.78,5.73,7.72,5.15,10,11.68,7.58,20.55-2.24,8.31-8,13.13-17,13.64-8.27.47-15.53-1.85-20.46-9-2.31-3.36-2.19-3.47.85-6.06Z"/><path d="M857.71,44c-1.53-1.7-2.77-3.26-4.2-4.64a8.73,8.73,0,0,0-9.72-1.86c-3.51,1.31-4.1,4.5-1.12,6.72a50.41,50.41,0,0,0,6.75,3.7c3.6,1.9,7.41,3.48,10.77,5.73,7.72,5.15,10,11.69,7.58,20.56-2.25,8.31-8,13.13-17,13.63-8.27.47-15.53-1.86-20.46-9.05-2.3-3.36-2.18-3.48.86-6.06l7.06-6C838.92,68,839.45,69,840,70c2.47,4.33,6.81,6.32,10.86,5,4.52-1.48,5.74-6.48,2.18-9.63A26.59,26.59,0,0,0,847.53,62c-3.69-1.91-7.64-3.38-11.12-5.6-6.41-4.1-9.88-10-8.31-17.8,1.47-7.35,6.73-11.22,13.58-13.16,10.65-3,19.33.66,24.25,10,.83,1.58.68,2.49-.87,3.45C862.6,40.49,860.26,42.24,857.71,44Z"/><path d="M141.73,37V49.66c4.52,0,8.92.13,13.3-.05,2.38-.1,3.25.59,3.07,3-.21,2.81,0,5.64,0,8.75H141.81V75.23c.88,0,1.77.12,2.65.12,5.33,0,10.66,0,16,0,1.56,0,2.28.37,2.2,2.09-.12,2.58-.08,5.16,0,7.75,0,1.4-.5,1.87-1.9,1.87Q146,87,131.26,87c-1.61,0-2-.65-2-2.07q0-28.74,0-57.48c0-1.59.46-2.2,2.12-2.18q14.62.09,29.24,0c1.53,0,2.06.53,2,2a67,67,0,0,0,0,7c.13,2-.46,2.77-2.62,2.71-5.24-.15-10.5,0-15.74,0Z"/><path d="M741.22,37V49.66c4.5,0,8.89.12,13.27,0,2.32-.09,3.31.48,3.11,3-.22,2.81-.05,5.65-.05,8.84H741.24V75.22c.92,0,1.8.12,2.69.13,5.33,0,10.66.07,16,0,1.78,0,2.33.59,2.24,2.3-.12,2.49-.08,5,0,7.5,0,1.36-.41,1.92-1.86,1.91-9.83,0-19.66-.07-29.49,0-1.83,0-2-.85-2-2.29,0-5.75,0-11.5,0-17.24,0-13.08,0-26.16,0-39.24,0-2.17.41-3,2.85-3,9.33.15,18.66.11,28,0,1.93,0,2.7.49,2.56,2.52a69.37,69.37,0,0,0,0,7.24c.06,1.55-.57,2-2.06,2-5.33-.07-10.66,0-16,0Z"/><path d="M1378.24,37.1V49.68h16.16V61.41h-16.1V75.35h4.94c4.58,0,9.16.05,13.74,0,1.59,0,2.25.44,2.17,2.12-.11,2.49-.08,5,0,7.5,0,1.41-.3,2.11-1.93,2.1-9.83-.06-19.66-.08-29.49,0-2.17,0-1.91-1.28-1.91-2.61q0-19.74,0-39.49c0-5.75.07-11.5,0-17.24,0-1.86.54-2.43,2.41-2.42,9.5.08,19,.1,28.49,0,2,0,2.6.68,2.48,2.59a54.83,54.83,0,0,0,0,6.74c.11,1.85-.49,2.47-2.39,2.42-5.33-.12-10.66,0-16,0C1380,37,1379.16,37.06,1378.24,37.1Z"/><path d="M1138.82,75.35h17.63c3.18,0,3.19,0,3.19,3.29,0,2.17-.05,4.33,0,6.5,0,1.39-.46,1.89-1.89,1.88Q1143,87,1128.27,87c-1.59,0-2-.62-2-2.06q0-28.87,0-57.73c0-1.6.68-1.95,2.1-1.94q14.62.06,29.24,0c1.51,0,2.07.5,2,2-.09,2.58-.09,5.17,0,7.75.06,1.58-.63,2-2.09,1.95-5.33-.06-10.66,0-16,0h-2.83V49.66c4.5,0,8.9.12,13.28,0,2.36-.09,3.27.55,3.08,3-.21,2.81,0,5.65,0,8.75h-16.23Z"/><path d="M1307.56,25.34c3.76,0,7.33-.1,10.89.09.6,0,1.43,1.22,1.64,2,3,11.06,6,22.15,8.91,33.23a6.31,6.31,0,0,0,1.32,2.72q2.33-8.46,4.65-16.92c1.71-6.25,3.46-12.5,5.05-18.78.48-1.89,1.37-2.52,3.28-2.42,3.05.15,6.12,0,9.48,0-.2,1.13-.29,1.92-.49,2.69q-7.63,28.41-15.25,56.83c-.44,1.67-1.14,2.3-2.9,2.21-2.91-.15-5.83.06-8.74-.11a2.7,2.7,0,0,1-2-1.47q-8-29.22-15.83-58.48A8.09,8.09,0,0,1,1307.56,25.34Z"/><path d="M225.7,37.12V49.66h16.22V61.47H225.59c0,2.15,0,4,0,5.91,0,5.83,0,11.66,0,17.48,0,1.59-.42,2.25-2.11,2.17-2.66-.12-5.33-.14-8,0-1.82.1-2.24-.65-2.23-2.31.06-8.57,0-17.15,0-25.72,0-10.32,0-20.65,0-31,0-2,.37-2.79,2.57-2.76,9.41.12,18.81.09,28.22,0,1.87,0,2.75.39,2.6,2.47a56.58,56.58,0,0,0,0,7c.09,1.73-.5,2.31-2.27,2.28-5.74-.1-11.49,0-17.23,0C226.75,37,226.34,37.06,225.7,37.12Z"/><path d="M44.9,37V57.06q0,13.24,0,26.49c0,3.45,0,3.45-3.32,3.45-2.17,0-4.34-.13-6.49,0s-2.68-.53-2.67-2.63c.09-14.83,0-29.65,0-44.48,0-.89,0-1.79,0-2.94-4.06,0-7.87-.08-11.68,0-1.81.06-2.58-.42-2.47-2.35.14-2.49.09-5,0-7.49,0-1.42.53-1.88,1.91-1.88q18.37,0,36.74,0c1.46,0,2.11.43,2,2-.1,2.58-.1,5.17,0,7.74.06,1.59-.63,2-2.08,2C53,36.94,49.13,37,44.9,37Z"/><path d="M1242.49,87V37c-4.13,0-8-.08-11.9,0-1.77.05-2.35-.56-2.28-2.28.11-2.49.08-5,0-7.5,0-1.35.39-1.95,1.84-1.94q18.49.05,37,0c1.41,0,1.9.54,1.86,1.93-.08,2.58-.09,5.17,0,7.75.05,1.51-.48,2.06-2,2-3.9-.08-7.81,0-12.1,0v3c0,14.74,0,29.49,0,44.23,0,2.18-.57,2.95-2.81,2.81C1249.07,86.86,1246,87,1242.49,87Z"/><path d="M411.57,37c-4.34,0-8.17-.08-12,0-1.79.06-2.34-.58-2.27-2.3.11-2.49.08-5,0-7.5,0-1.36.42-1.94,1.85-1.93q18.49.05,37,0c1.42,0,1.89.56,1.85,1.94-.08,2.58-.09,5.17,0,7.75.05,1.53-.51,2.05-2,2-3.9-.08-7.81,0-12.09,0,0,1.11,0,2.07,0,3,0,14.66-.05,29.32.05,44,0,2.4-.66,3.21-3.07,3.05-3-.2-6,0-9.3,0Z"/><path d="M559.9,37c0,14.4,0,28.39,0,42.38,0,2.46.6,5.72-.69,7.15-1.12,1.24-4.53.45-6.93.47-4.8,0-4.8,0-4.8-4.9V37c-3.92,0-7.71-.12-11.5,0-2.11.09-2.79-.62-2.65-2.68a68.24,68.24,0,0,0,0-7c-.05-1.47.42-2.07,2-2.07q18.37.07,36.74,0c1.54,0,2,.58,2,2.07-.09,2.5-.1,5,0,7.49.07,1.64-.52,2.19-2.15,2.15C568,36.93,564.07,37,559.9,37Z"/><path d="M1092,75.25h21c0,3.66.06,7.05-.07,10.44,0,.46-1,1.25-1.57,1.25-10,.08-20,0-30,.08-1.48,0-1.58-.83-1.58-1.93,0-3.25,0-6.5,0-9.75,0-15.75,0-31.49,0-47.24,0-2.15.5-3,2.77-2.83a48.76,48.76,0,0,0,7,0c2-.12,2.55.53,2.53,2.53-.08,14.75,0,29.49,0,44.24C1092,73,1092,73.87,1092,75.25Z"/><path d="M1066.54,75.22c0,3.69.08,6.94-.07,10.17a2.23,2.23,0,0,1-1.53,1.54q-15,.14-30,0c-.55,0-1.16-.95-1.59-1.56-.2-.28,0-.81,0-1.23,0-18.66,0-37.33-.05-56,0-2.36.72-3.06,3-2.88a36.41,36.41,0,0,0,6.24,0c2.35-.21,3.13.49,3.11,3-.12,14.66-.06,29.33-.06,44,0,.89,0,1.79,0,3Z"/><path d="M1294.52,56.3c0,9.41-.05,18.81,0,28.22,0,2-.53,2.66-2.53,2.52a62,62,0,0,0-7.49,0c-1.78.1-2.28-.58-2.26-2.28.07-7,0-14,0-21,0-11.9.06-23.81,0-35.71,0-2.2.58-3,2.8-2.79a57.51,57.51,0,0,0,7.24,0c1.76-.09,2.26.57,2.25,2.29C1294.48,37.16,1294.52,46.73,1294.52,56.3Z"/><path d="M384.52,56c0,9.41-.09,18.81.06,28.22,0,2.39-.74,3-3,2.85a63.85,63.85,0,0,0-7.24,0c-1.48.06-2.08-.39-2.08-1.95q.05-29,0-57.93c0-1.45.59-1.87,1.94-1.84,2.75.06,5.5.09,8.24,0,1.7-.06,2.08.66,2.07,2.22C384.49,37,384.52,46.49,384.52,56Z"/><path d="M587.32,56.25c0-9.41.07-18.81-.05-28.22,0-2.25.67-2.92,2.84-2.76a48.75,48.75,0,0,0,7,0c2-.14,2.48.68,2.47,2.59-.07,16.65,0,33.29,0,49.94,0,2.41-.08,4.83,0,7.24.07,1.57-.56,2-2,2-2.66-.09-5.33-.13-8,0-1.83.1-2.23-.66-2.22-2.32C587.35,75.23,587.32,65.74,587.32,56.25Z"/></svg>
