{
  "accessors": [
    {
      "bufferView": 2,
      "componentType": 5126,
      "count": 12877,
      "max": [
        2.3957109451293945,
        2.8878650665283203,
        2.5576000213623047
      ],
      "min": [
        -3.0848009586334229,
        -2.3952240943908691,
        -2.2798008918762207
      ],
      "type": "VEC3"
    },
    {
      "bufferView": 2,
      "byteOffset": 154524,
      "componentType": 5126,
      "count": 12877,
      "max": [
        0.99981582164764404,
        0.9999467134475708,
        0.99988317489624023
      ],
      "min": [
        -0.99975305795669556,
        -0.9999879002571106,
        -0.99999868869781494
      ],
      "type": "VEC3"
    },
    {
      "bufferView": 3,
      "componentType": 5126,
      "count": 12877,
      "max": [
        0.99999958276748657,
        0.99975329637527466,
        0.99346375465393066,
        -1
      ],
      "min": [
        -0.99944853782653809,
        -0.99085181951522827,
        -0.99687427282333374,
        -1
      ],
      "type": "VEC4"
    },
    {
      "bufferView": 1,
      "componentType": 5126,
      "count": 12877,
      "max": [
        0.99804002046585083,
        0.99804002046585083
      ],
      "min": [
        0.062010001391172409,
        0.0019499999471008778
      ],
      "type": "VEC2"
    },
    {
      "bufferView": 0,
      "componentType": 5125,
      "count": 76878,
      "max": [
        12876
      ],
      "min": [
        0
      ],
      "type": "SCALAR"
    }
  ],
  "asset": {
    "extras": {
      "author": "Mistral_Yu (https://sketchfab.com/FFT_kedar)",
      "license": "CC-BY-4.0 (http://creativecommons.org/licenses/by/4.0/)",
      "source": "https://sketchfab.com/models/55ce4367f7624167a2673d4cf2edad92",
      "title": "Pomelo"
    },
    "generator": "Sketchfab-3.47.8",
    "version": "2.0"
  },
  "bufferViews": [
    {
      "buffer": 0,
      "byteLength": 307512,
      "byteOffset": 0,
      "name": "floatBufferViews",
      "target": 34963
    },
    {
      "buffer": 0,
      "byteLength": 103016,
      "byteOffset": 307512,
      "byteStride": 8,
      "name": "floatBufferViews",
      "target": 34962
    },
    {
      "buffer": 0,
      "byteLength": 309048,
      "byteOffset": 410528,
      "byteStride": 12,
      "name": "floatBufferViews",
      "target": 34962
    },
    {
      "buffer": 0,
      "byteLength": 206032,
      "byteOffset": 719576,
      "byteStride": 16,
      "name": "floatBufferViews",
      "target": 34962
    }
  ],
  "buffers": [
    {
      "byteLength": 925608,
      "uri": "scene.bin"
    }
  ],
  "images": [
    {
      "uri": "textures/Yuzu_raw.10k_metallicRoughness.png"
    },
    {
      "uri": "textures/Yuzu_raw.10k_baseColor.jpeg"
    },
    {
      "uri": "textures/Yuzu_raw.10k_normal.jpeg"
    }
  ],
  "materials": [
    {
      "doubleSided": true,
      "name": "Yuzu_raw.10k",
      "normalTexture": {
        "index": 2,
        "scale": 0.69999999999999996,
        "texCoord": 0
      },
      "occlusionTexture": {
        "index": 0,
        "strength": 0.90000000000000002,
        "texCoord": 0
      },
      "pbrMetallicRoughness": {
        "baseColorFactor": [
          1,
          1,
          1,
          1
        ],
        "baseColorTexture": {
          "index": 1,
          "texCoord": 0
        },
        "metallicFactor": 0,
        "metallicRoughnessTexture": {
          "index": 0,
          "texCoord": 0
        },
        "roughnessFactor": 0.94999999999999996
      }
    }
  ],
  "meshes": [
    {
      "primitives": [
        {
          "attributes": {
            "NORMAL": 1,
            "POSITION": 0,
            "TANGENT": 2,
            "TEXCOORD_0": 3
          },
          "indices": 4,
          "material": 0,
          "mode": 4
        }
      ]
    }
  ],
  "nodes": [
    {
      "children": [
        1
      ],
      "name": "RootNode (gltf orientation matrix)",
      "rotation": [
        -0.70710678118654746,
        -0,
        -0,
        0.70710678118654757
      ]
    },
    {
      "children": [
        2
      ],
      "matrix": [
        0.99856811761856079,
        -0.00086342100985348225,
        -0.053488012403249741,
        0,
        0,
        0.99986976385116577,
        -0.016140224412083626,
        0,
        0.053494982421398163,
        0.016117112711071968,
        0.99843806028366089,
        0,
        -0.0079235918819904327,
        -0.0025040048640221357,
        -0.014236340299248695,
        1
      ],
      "name": "RootNode (model correction matrix)"
    },
    {
      "children": [
        3
      ],
      "name": "Citrus_10k.OBJ.cleaner.materialmerger.gles"
    },
    {
      "mesh": 0,
      "name": ""
    }
  ],
  "samplers": [
    {
      "magFilter": 9729,
      "minFilter": 9987,
      "wrapS": 10497,
      "wrapT": 10497
    }
  ],
  "scene": 0,
  "scenes": [
    {
      "name": "OSG_Scene",
      "nodes": [
        0
      ]
    }
  ],
  "textures": [
    {
      "sampler": 0,
      "source": 0
    },
    {
      "sampler": 0,
      "source": 1
    },
    {
      "sampler": 0,
      "source": 2
    }
  ]
}

