{
  "accessors": [
    {
      "bufferView": 2,
      "componentType": 5126,
      "count": 4189,
      "max": [
        1.3507590293884277,
        1.3587298393249512,
        1.3793920278549194
      ],
      "min": [
        0,
        0,
        0
      ],
      "type": "VEC3"
    },
    {
      "bufferView": 2,
      "byteOffset": 50268,
      "componentType": 5126,
      "count": 4189,
      "max": [
        0.99926471710205078,
        0.99883460998535156,
        0.99990749359130859
      ],
      "min": [
        -0.99927544593811035,
        -0.99939262866973877,
        -0.99904453754425049
      ],
      "type": "VEC3"
    },
    {
      "bufferView": 3,
      "componentType": 5126,
      "count": 4189,
      "max": [
        0.9999772310256958,
        0.99997669458389282,
        0.89386433362960815,
        1
      ],
      "min": [
        -0.99901294708251953,
        -0.99937659502029419,
        -0.98062211275100708,
        -1
      ],
      "type": "VEC4"
    },
    {
      "bufferView": 1,
      "componentType": 5126,
      "count": 4189,
      "max": [
        0.98750001192092896,
        0.98610001802444458
      ],
      "min": [
        0.015300000086426735,
        0.010400000028312206
      ],
      "type": "VEC2"
    },
    {
      "bufferView": 0,
      "componentType": 5125,
      "count": 24024,
      "max": [
        4188
      ],
      "min": [
        0
      ],
      "type": "SCALAR"
    }
  ],
  "asset": {
    "extras": {
      "author": "mauricesvay (https://sketchfab.com/mauricesvay)",
      "license": "CC-BY-4.0 (http://creativecommons.org/licenses/by/4.0/)",
      "source": "https://sketchfab.com/models/62ac29fe1ec941479ecd1c8b119ad57c",
      "title": "Pomegranate"
    },
    "generator": "Sketchfab-3.18.5",
    "version": "2.0"
  },
  "bufferViews": [
    {
      "buffer": 0,
      "byteLength": 96096,
      "byteOffset": 0,
      "name": "floatBufferViews",
      "target": 34963
    },
    {
      "buffer": 0,
      "byteLength": 33512,
      "byteOffset": 96096,
      "byteStride": 8,
      "name": "floatBufferViews",
      "target": 34962
    },
    {
      "buffer": 0,
      "byteLength": 100536,
      "byteOffset": 129608,
      "byteStride": 12,
      "name": "floatBufferViews",
      "target": 34962
    },
    {
      "buffer": 0,
      "byteLength": 67024,
      "byteOffset": 230144,
      "byteStride": 16,
      "name": "floatBufferViews",
      "target": 34962
    }
  ],
  "buffers": [
    {
      "byteLength": 297168,
      "uri": "scene.bin"
    }
  ],
  "images": [
    {
      "uri": "textures/pomegranate_remapped_baseColor.png"
    }
  ],
  "materials": [
    {
      "doubleSided": false,
      "name": "pomegranate_remapped",
      "pbrMetallicRoughness": {
        "baseColorFactor": [
          1,
          1,
          1,
          1
        ],
        "baseColorTexture": {
          "index": 0,
          "texCoord": 0
        },
        "metallicFactor": 0,
        "roughnessFactor": 0.26391006099999997
      }
    }
  ],
  "meshes": [
    {
      "primitives": [
        {
          "attributes": {
            "NORMAL": 1,
            "POSITION": 0,
            "TANGENT": 2,
            "TEXCOORD_0": 3
          },
          "indices": 4,
          "material": 0,
          "mode": 4
        }
      ]
    }
  ],
  "nodes": [
    {
      "children": [
        1
      ],
      "name": "RootNode (gltf orientation matrix)",
      "rotation": [
        -0.70710678118654746,
        -0,
        -0,
        0.70710678118654757
      ]
    },
    {
      "children": [
        2
      ],
      "matrix": [
        0.89063090085983276,
        -0.12435564398765564,
        -0.43739259243011475,
        0,
        -0.11077123880386353,
        -0.99223583936691284,
        0.056548379361629486,
        0,
        -0.44102871417999268,
        -0.0019132158486172557,
        -0.8974909782409668,
        0,
        -0.56229293346405029,
        -9.4889888763427734,
        0.12004238367080688,
        1
      ],
      "name": "RootNode (model correction matrix)"
    },
    {
      "children": [
        3
      ],
      "matrix": [
        1,
        0,
        0,
        0,
        0,
        1,
        0,
        0,
        0,
        0,
        1,
        0,
        -0.41931399703025818,
        -5.4581999778747559,
        -0.82787501811981201,
        1
      ],
      "name": "remapped.obj.cleaner.gles"
    },
    {
      "children": [
        4
      ],
      "name": ""
    },
    {
      "mesh": 0,
      "name": ""
    }
  ],
  "samplers": [
    {
      "magFilter": 9729,
      "minFilter": 9987,
      "wrapS": 10497,
      "wrapT": 10497
    }
  ],
  "scene": 0,
  "scenes": [
    {
      "name": "OSG_Scene",
      "nodes": [
        0
      ]
    }
  ],
  "textures": [
    {
      "sampler": 0,
      "source": 0
    }
  ]
}

